HIERARCHY
ROOT pelvis
{
    OFFSET 0.0 0.0 0.0
    CHANNELS 6 Xposition Yposition Zposition Zrotation Yrotation Xrotation
    JOINT shoulderL
    {
        OFFSET -0.1 0.3 0.0
        CHANNELS 3 Zrotation Yrotation Xrotation
        JOINT elbowL
        {
            OFFSET -0.2 0.0 0.0
            CHANNELS 3 Zrotation Yrotation Xrotation
            End handL
            {
                OFFSET -0.15 0.0 0.0
            }
        }
    }
    JOINT shoulderR
    {
        OFFSET 0.1 0.3 0.0
        CHANNELS 3 Zrotation Yrotation Xrotation
        JOINT elbowR
        {
            OFFSET 0.2 0.0 0.0
            CHANNELS 3 Zrotation Yrotation Xrotation
            End handR
            {
                OFFSET 0.15 0.0 0.0
            }
        }
    }
}

MOTION
Frames: 16
Frame Time: 0.016666666666666666
0.0 0.0 0.0 -109.63992208117597 68.05281458631671 -93.55890872781794 26.24146155283655 -10.960953923572793 -16.14710023235069 -9.648786488164346 -66.94623687153998 2.9826709098050173 -7.554202226755519 11.341674296700285 -17.597715048637653 -21.435716076074854 71.608561432753 -24.27076039267162 
0.0 0.0 0.0 -109.4160473827928 68.0899355933855 -93.4376574288409 26.20119434499384 -11.003353705558379 -16.017736741772033 -9.532596771159913 -66.96073440377602 2.8825990929482677 -7.544547078600574 11.360849474728862 -17.56246485075027 -21.36315504055877 71.60959222108632 -24.215765442258146 
0.0 0.0 0.0 -109.09942363973569 68.14419532823234 -93.20741074873011 26.175997427372273 -11.005525490437993 -15.924646967517173 -9.52298044471833 -66.98301703894265 2.8936368764061022 -7.5529958616571955 11.405165400993601 -17.54457310323936 -21.300570641762476 71.5913853826991 -24.168550121374793 
0.0 0.0 0.0 -108.71151054403093 68.20702565163144 -92.90516778004233 26.160269283759945 -11.004085771775868 -15.839889044279888 -9.575865337719613 -67.00052575136267 2.9640508056012673 -7.566604691210939 11.461519614938757 -17.553789876050825 -21.185958007195552 71.56751262072112 -24.072480819585678 
0.0 0.0 0.0 -108.2711065345071 68.28258742612168 -92.56191392001705 26.13911246936162 -11.021852958490465 -15.740606983444595 -9.592098112577599 -66.99831518965352 3.001463191556429 -7.5775847052954735 11.513762933372464 -17.56092680880885 -21.071477553701715 71.54678409700782 -23.974059831863272 
0.0 0.0 0.0 -107.56663138203389 68.38318038994177 -91.96410695527452 26.101258426081323 -10.989698820193615 -15.595430259557112 -9.554392417098072 -66.96997523261058 2.974550589760717 -7.5967363726073325 11.625395761499906 -17.55676599163565 -21.032817800365322 71.53887326150945 -23.93092270518203 
0.0 0.0 0.0 -106.78449237798522 68.49714725257725 -91.28961781031724 26.059781198006558 -10.96287797643311 -15.421701915908047 -9.478673256838272 -66.93375985486797 2.910731467506008 -7.628038287127464 11.725488241855185 -17.539484277802586 -21.049868213409706 71.53693582001563 -23.958877904871358 
0.0 0.0 0.0 -106.01304945190677 68.61024119870237 -90.63199973815026 26.02243846498918 -10.95471887322949 -15.244671929906708 -9.394614023835876 -66.91685398374143 2.8550054021959705 -7.652099629998733 11.791075759447855 -17.520486465780877 -21.025817509924565 71.54212273466472 -23.975807737935863 
0.0 0.0 0.0 -105.1896753820321 68.72250002692644 -89.96681076840137 25.981420628191813 -10.96359271519835 -15.058766724189075 -9.347789168953526 -66.92064521879381 2.8253787355894615 -7.652797577568122 11.85902954736464 -17.4663938720736 -20.966554420263705 71.54752471595134 -23.94685948254229 
0.0 0.0 0.0 -104.28705400946882 68.83729566786154 -89.28192369500154 25.929278141046478 -11.006650986541546 -14.849828377542053 -9.3139410723076 -66.92754049431333 2.7914866076285176 -7.631279015726956 11.93632171073671 -17.33534968533214 -20.974446224047693 71.53853725108848 -23.96868060738017 
0.0 0.0 0.0 -103.24584496979527 68.95867976915999 -88.49291084529385 25.860756542905122 -11.069130902573308 -14.628475986258612 -9.277153419773507 -66.92244933231792 2.743556995977156 -7.584843788760109 12.033329964455936 -17.152299312230685 -21.067254385451417 71.51913676028056 -24.07506596990233 
0.0 0.0 0.0 -102.19393838636859 69.09474030956395 -87.69237003406171 25.77068000514778 -11.188019958211441 -14.434812542329936 -9.245031515146973 -66.90742158516761 2.6876427170956547 -7.52020107388879 12.088398127423904 -16.969326124994655 -21.169857898917748 71.49970617650654 -24.208075149269682 
0.0 0.0 0.0 -101.23420818340195 69.2543339454814 -86.9361566482738 25.66644340876404 -11.386834943297561 -14.322735621405661 -9.291477460455106 -66.88430681848145 2.7015779110277016 -7.453659199890768 12.06200248958212 -16.83279555065675 -21.236301590472795 71.47986380673704 -24.32308716956983 
0.0 0.0 0.0 -100.08068328365484 69.43159399015563 -85.9258127471875 25.5865632162087 -11.539772129233171 -14.297476969665343 -9.497808058434002 -66.87648561452728 2.8481890024931933 -7.390444113930405 12.052503417269445 -16.75523027376418 -21.320440780036456 71.43656180467748 -24.44172941431048 
0.0 0.0 0.0 -98.44118377376161 69.63862662996961 -84.40009584116136 25.495233017946536 -11.570909754330183 -14.29656246353326 -9.83519426432844 -66.87734953873743 3.135602440342053 -7.38714175241991 12.141625481901986 -16.70328875649266 -21.423061831250028 71.35828614604308 -24.575266917326438 
0.0 0.0 0.0 -96.42298916610552 69.849350479063 -82.46564695606689 25.4093348846892 -11.54223591749421 -14.271601022353186 -10.089546387565557 -66.87136314923913 3.3508451334332583 -7.462731516439227 12.2867725609385 -16.651484995565244 -21.527379621113578 71.22772758489786 -24.722136100585733 
